<svg width="292" height="49" viewBox="0 0 292 49" fill="none" xmlns="http://www.w3.org/2000/svg">
<path d="M0.776 19.248C0.776 15.984 1.528 13.056 3.032 10.464C4.568 7.872 6.632 5.856 9.224 4.416C11.848 2.944 14.712 2.208 17.816 2.208C21.368 2.208 24.52 3.088 27.272 4.848C30.056 6.576 32.072 9.04 33.32 12.24H26.744C25.88 10.48 24.68 9.168 23.144 8.304C21.608 7.44 19.832 7.008 17.816 7.008C15.608 7.008 13.64 7.504 11.912 8.496C10.184 9.488 8.824 10.912 7.832 12.768C6.872 14.624 6.392 16.784 6.392 19.248C6.392 21.712 6.872 23.872 7.832 25.728C8.824 27.584 10.184 29.024 11.912 30.048C13.64 31.04 15.608 31.536 17.816 31.536C19.832 31.536 21.608 31.104 23.144 30.24C24.68 29.376 25.88 28.064 26.744 26.304H33.32C32.072 29.504 30.056 31.968 27.272 33.696C24.52 35.424 21.368 36.288 17.816 36.288C14.68 36.288 11.816 35.568 9.224 34.128C6.632 32.656 4.568 30.624 3.032 28.032C1.528 25.44 0.776 22.512 0.776 19.248ZM53.405 9.12C55.421 9.12 57.213 9.552 58.781 10.416C60.381 11.28 61.629 12.56 62.525 14.256C63.453 15.952 63.917 18 63.917 20.4V36H58.493V21.216C58.493 18.848 57.901 17.04 56.717 15.792C55.533 14.512 53.917 13.872 51.869 13.872C49.821 13.872 48.189 14.512 46.973 15.792C45.789 17.04 45.197 18.848 45.197 21.216V36H39.725V0.48H45.197V12.624C46.125 11.504 47.293 10.64 48.701 10.032C50.141 9.424 51.709 9.12 53.405 9.12ZM69.0729 22.656C69.0729 20 69.6169 17.648 70.7049 15.6C71.8249 13.552 73.3289 11.968 75.2169 10.848C77.1369 9.696 79.2489 9.12 81.5529 9.12C83.6329 9.12 85.4409 9.536 86.9769 10.368C88.5449 11.168 89.7929 12.176 90.7209 13.392V9.552H96.2409V36H90.7209V32.064C89.7929 33.312 88.5289 34.352 86.9289 35.184C85.3289 36.016 83.5049 36.432 81.4569 36.432C79.1849 36.432 77.1049 35.856 75.2169 34.704C73.3289 33.52 71.8249 31.888 70.7049 29.808C69.6169 27.696 69.0729 25.312 69.0729 22.656ZM90.7209 22.752C90.7209 20.928 90.3369 19.344 89.5689 18C88.8329 16.656 87.8569 15.632 86.6409 14.928C85.4249 14.224 84.1129 13.872 82.7049 13.872C81.2969 13.872 79.9849 14.224 78.7689 14.928C77.5529 15.6 76.5609 16.608 75.7929 17.952C75.0569 19.264 74.6889 20.832 74.6889 22.656C74.6889 24.48 75.0569 26.08 75.7929 27.456C76.5609 28.832 77.5529 29.888 78.7689 30.624C80.0169 31.328 81.3289 31.68 82.7049 31.68C84.1129 31.68 85.4249 31.328 86.6409 30.624C87.8569 29.92 88.8329 28.896 89.5689 27.552C90.3369 26.176 90.7209 24.576 90.7209 22.752ZM135.444 9.12C137.524 9.12 139.38 9.552 141.012 10.416C142.676 11.28 143.972 12.56 144.9 14.256C145.86 15.952 146.34 18 146.34 20.4V36H140.916V21.216C140.916 18.848 140.324 17.04 139.14 15.792C137.956 14.512 136.34 13.872 134.292 13.872C132.244 13.872 130.612 14.512 129.396 15.792C128.212 17.04 127.62 18.848 127.62 21.216V36H122.196V21.216C122.196 18.848 121.604 17.04 120.42 15.792C119.236 14.512 117.62 13.872 115.572 13.872C113.524 13.872 111.892 14.512 110.676 15.792C109.492 17.04 108.9 18.848 108.9 21.216V36H103.428V9.552H108.9V12.576C109.796 11.488 110.932 10.64 112.308 10.032C113.684 9.424 115.156 9.12 116.724 9.12C118.836 9.12 120.724 9.568 122.388 10.464C124.052 11.36 125.332 12.656 126.228 14.352C127.028 12.752 128.276 11.488 129.972 10.56C131.668 9.6 133.492 9.12 135.444 9.12ZM151.479 22.656C151.479 20 152.023 17.648 153.111 15.6C154.231 13.552 155.735 11.968 157.623 10.848C159.543 9.696 161.655 9.12 163.959 9.12C166.039 9.12 167.847 9.536 169.383 10.368C170.951 11.168 172.199 12.176 173.127 13.392V9.552H178.647V36H173.127V32.064C172.199 33.312 170.935 34.352 169.335 35.184C167.735 36.016 165.911 36.432 163.863 36.432C161.591 36.432 159.511 35.856 157.623 34.704C155.735 33.52 154.231 31.888 153.111 29.808C152.023 27.696 151.479 25.312 151.479 22.656ZM173.127 22.752C173.127 20.928 172.743 19.344 171.975 18C171.239 16.656 170.263 15.632 169.047 14.928C167.831 14.224 166.519 13.872 165.111 13.872C163.703 13.872 162.391 14.224 161.175 14.928C159.959 15.6 158.967 16.608 158.199 17.952C157.463 19.264 157.095 20.832 157.095 22.656C157.095 24.48 157.463 26.08 158.199 27.456C158.967 28.832 159.959 29.888 161.175 30.624C162.423 31.328 163.735 31.68 165.111 31.68C166.519 31.68 167.831 31.328 169.047 30.624C170.263 29.92 171.239 28.896 171.975 27.552C172.743 26.176 173.127 24.576 173.127 22.752Z" fill="white"/>
<path d="M218.415 29.184H204.447L202.047 36H196.335L208.287 2.592H214.623L226.575 36H220.815L218.415 29.184ZM216.879 24.72L211.455 9.216L205.983 24.72H216.879ZM237.244 13.44C238.172 12.224 239.436 11.2 241.036 10.368C242.636 9.536 244.444 9.12 246.46 9.12C248.764 9.12 250.86 9.696 252.748 10.848C254.668 11.968 256.172 13.552 257.26 15.6C258.348 17.648 258.892 20 258.892 22.656C258.892 25.312 258.348 27.696 257.26 29.808C256.172 31.888 254.668 33.52 252.748 34.704C250.86 35.856 248.764 36.432 246.46 36.432C244.444 36.432 242.652 36.032 241.084 35.232C239.516 34.4 238.236 33.376 237.244 32.16V48.576H231.772V9.552H237.244V13.44ZM253.324 22.656C253.324 20.832 252.94 19.264 252.172 17.952C251.436 16.608 250.444 15.6 249.196 14.928C247.98 14.224 246.668 13.872 245.26 13.872C243.884 13.872 242.572 14.224 241.324 14.928C240.108 15.632 239.116 16.656 238.348 18C237.612 19.344 237.244 20.928 237.244 22.752C237.244 24.576 237.612 26.176 238.348 27.552C239.116 28.896 240.108 29.92 241.324 30.624C242.572 31.328 243.884 31.68 245.26 31.68C246.668 31.68 247.98 31.328 249.196 30.624C250.444 29.888 251.436 28.832 252.172 27.456C252.94 26.08 253.324 24.48 253.324 22.656ZM269.775 13.44C270.703 12.224 271.967 11.2 273.567 10.368C275.167 9.536 276.975 9.12 278.991 9.12C281.295 9.12 283.391 9.696 285.279 10.848C287.199 11.968 288.703 13.552 289.791 15.6C290.879 17.648 291.423 20 291.423 22.656C291.423 25.312 290.879 27.696 289.791 29.808C288.703 31.888 287.199 33.52 285.279 34.704C283.391 35.856 281.295 36.432 278.991 36.432C276.975 36.432 275.183 36.032 273.615 35.232C272.047 34.4 270.767 33.376 269.775 32.16V48.576H264.303V9.552H269.775V13.44ZM285.855 22.656C285.855 20.832 285.471 19.264 284.703 17.952C283.967 16.608 282.975 15.6 281.727 14.928C280.511 14.224 279.199 13.872 277.791 13.872C276.415 13.872 275.103 14.224 273.855 14.928C272.639 15.632 271.647 16.656 270.879 18C270.143 19.344 269.775 20.928 269.775 22.752C269.775 24.576 270.143 26.176 270.879 27.552C271.647 28.896 272.639 29.92 273.855 30.624C275.103 31.328 276.415 31.68 277.791 31.68C279.199 31.68 280.511 31.328 281.727 30.624C282.975 29.888 283.967 28.832 284.703 27.456C285.471 26.08 285.855 24.48 285.855 22.656Z" fill="#31A592"/>
</svg>
