<svg width="234" height="301" viewBox="0 0 234 301" fill="none" xmlns="http://www.w3.org/2000/svg">
<path d="M59.6009 291.393L69.4693 268.153L34.1725 228.455L31.4128 291.393H59.6009Z" fill="#31A592"/>
<path opacity="0.1" d="M59.6009 291.393L69.4693 268.153L34.1725 228.455L31.4128 291.393H59.6009Z" fill="black"/>
<path d="M181.249 26.5671C201.047 9.17656 217.63 10.963 223.137 16.0379C228.644 21.1128 211.149 59.6564 211.149 59.6564C204.607 57.2175 198.55 53 193.391 47.2904C188.231 41.5808 184.09 34.5129 181.249 26.5671V26.5671Z" fill="#31A592"/>
<path opacity="0.2" d="M190.673 44.0366C201.823 29.9819 213.194 25.4762 216.274 27.8318C219.354 30.1874 209.461 57.285 209.461 57.285C209.461 57.285 196.094 59.7513 190.673 44.0366Z" fill="black"/>
<path d="M9.22451 81.0784L8.10339 80.3511C11.1986 72.535 14.8397 65.0951 18.9819 58.1229L19.9799 59.1031C15.89 66.0008 12.2905 73.3554 9.22451 81.0784V81.0784Z" fill="#31A592"/>
<path d="M3.36011 98.9431L2.12811 98.4214C3.06443 94.8959 4.12396 91.3703 5.28204 87.9555L6.44011 88.6037C5.33131 91.9553 4.28411 95.4334 3.36011 98.9431Z" fill="#31A592"/>
<path d="M233.72 142.815C233.72 221.309 187.667 284.926 121.189 284.926C54.71 284.926 0.822327 221.309 0.822327 142.815C0.822327 64.3202 54.71 0.702667 121.189 0.702667C187.667 0.702667 233.72 64.3202 233.72 142.815Z" fill="#31A592"/>
<path opacity="0.1" d="M105.148 269.876L100.331 282.808C103.813 283.535 107.349 284.062 110.938 284.389L105.148 269.876Z" fill="black"/>
<path d="M97.8545 300.104L111.702 268.153L67.4118 247.379L61.7446 300.104H97.8545Z" fill="#31A592"/>
<path d="M162.362 300.104L150.362 268.153L192.534 247.379L195.33 300.104H162.362Z" fill="#31A592"/>
<path opacity="0.2" d="M192.657 163.351C192.657 184.599 178.021 201.816 160.021 201.816C142.022 201.816 127.447 184.599 127.447 163.351C127.447 142.103 142.034 124.887 160.021 124.887C178.008 124.887 192.657 142.103 192.657 163.351Z" fill="black"/>
<path opacity="0.2" d="M149.204 175.936C152.259 175.936 154.736 170.018 154.736 162.719C154.736 155.419 152.259 149.502 149.204 149.502C146.149 149.502 143.673 155.419 143.673 162.719C143.673 170.018 146.149 175.936 149.204 175.936Z" fill="black"/>
<path opacity="0.4" d="M109.645 91.6075C111.234 97.8206 109.768 104.603 106.38 106.737C102.992 108.871 98.988 105.552 97.3618 99.3384C95.7355 93.1252 97.2263 86.3429 100.614 84.2086C104.002 82.0743 108.056 85.3785 109.645 91.6075Z" fill="black"/>
<path opacity="0.4" d="M195.392 91.892C194.16 98.1052 195.675 104.808 198.731 106.848C201.786 108.887 205.236 105.504 206.443 99.2751C207.65 93.0461 206.16 86.3587 203.104 84.3192C200.049 82.2798 196.624 85.6631 195.392 91.892Z" fill="black"/>
<path opacity="0.2" d="M178.637 175.936C181.692 175.936 184.168 170.018 184.168 162.719C184.168 155.419 181.692 149.502 178.637 149.502C175.582 149.502 173.105 155.419 173.105 162.719C173.105 170.018 175.582 175.936 178.637 175.936Z" fill="black"/>
<path d="M86.0028 25.2707C64.5536 2.47332 45.3467 0.70265 38.7186 4.84475C32.0904 8.98685 49.3261 53.6804 49.3261 53.6804C49.3261 53.6804 72.8573 51.9097 86.0028 25.2707Z" fill="#31A592"/>
<path opacity="0.2" d="M73.9291 41.681C62.1635 24.2905 49.4493 17.0497 45.7409 18.852C42.0326 20.6543 51.4328 51.5145 51.4328 51.5145C51.4328 51.5145 66.5864 57.1111 73.9291 41.681Z" fill="black"/>
<path opacity="0.4" d="M129.32 13.0657H147.443C147.443 13.0657 143.5 7.50074 130.121 5.80912C122.543 5.01944 114.918 5.55127 107.452 7.39008C107.452 7.39008 122.384 6.96321 129.32 13.0657Z" fill="black"/>
</svg>
