<svg width="616" height="589" viewBox="0 0 616 589" fill="none" xmlns="http://www.w3.org/2000/svg">
<path d="M616 517.604H0V517.999H616V517.604Z" fill="#EBEBEB"/>
<path d="M137.565 530.868H96.7613V531.264H137.565V530.868Z" fill="#EBEBEB"/>
<path d="M201.432 542.267H164.263V542.662H201.432V542.267Z" fill="#EBEBEB"/>
<path d="M117.163 545.54H70.0392V545.935H117.163V545.54Z" fill="#EBEBEB"/>
<path d="M554.277 544.686H534.688V545.081H554.277V544.686Z" fill="#EBEBEB"/>
<path d="M530.733 544.686H482.291V545.081H530.733V544.686Z" fill="#EBEBEB"/>
<path d="M345.367 530.663H308V531.058H345.367V530.663Z" fill="#EBEBEB"/>
<path d="M439.541 530.663H350.713V531.058H439.541V530.663Z" fill="#EBEBEB"/>
<path d="M291.984 447.094H54.0971C52.2335 447.089 50.4474 446.136 49.1308 444.444C47.8142 442.751 47.0747 440.458 47.0747 438.066V8.94819C47.0909 6.57048 47.8376 4.297 49.1524 2.62157C50.4673 0.946134 52.2441 0.00407315 54.0971 0H291.984C293.85 0 295.639 0.951082 296.958 2.64402C298.278 4.33695 299.019 6.63307 299.019 9.02724V438.066C299.019 440.46 298.278 442.757 296.958 444.45C295.639 446.142 293.85 447.094 291.984 447.094ZM54.0971 0.316192C52.3152 0.32038 50.6074 1.23167 49.3486 2.85003C48.0897 4.46839 47.3827 6.66158 47.3827 8.94819V438.066C47.3827 440.353 48.0897 442.546 49.3486 444.164C50.6074 445.783 52.3152 446.694 54.0971 446.698H291.984C293.767 446.694 295.476 445.783 296.737 444.165C297.998 442.548 298.707 440.354 298.711 438.066V8.94819C298.707 6.66013 297.998 4.46697 296.737 2.84906C295.476 1.23115 293.767 0.320371 291.984 0.316192H54.0971Z" fill="#EBEBEB"/>
<path d="M558.478 447.094H320.579C318.714 447.089 316.927 446.137 315.608 444.445C314.289 442.753 313.547 440.459 313.544 438.066V8.94819C313.563 6.56904 314.313 4.29557 315.63 2.62058C316.946 0.945582 318.725 0.00402873 320.579 0H558.478C560.329 0.00822806 562.102 0.952128 563.415 2.62711C564.727 4.3021 565.472 6.57321 565.488 8.94819V438.066C565.488 440.455 564.75 442.746 563.436 444.438C562.122 446.13 560.339 447.085 558.478 447.094ZM320.579 0.316192C318.796 0.320371 317.087 1.23115 315.826 2.84906C314.565 4.46697 313.855 6.66013 313.852 8.94819V438.066C313.855 440.354 314.565 442.548 315.826 444.165C317.087 445.783 318.796 446.694 320.579 446.698H558.478C560.261 446.694 561.97 445.783 563.231 444.165C564.492 442.548 565.201 440.354 565.205 438.066V8.94819C565.201 6.66013 564.492 4.46697 563.231 2.84906C561.97 1.23115 560.261 0.320371 558.478 0.316192H320.579Z" fill="#EBEBEB"/>
<path d="M514.138 318.783H468.246V517.604H514.138V318.783Z" fill="#E6E6E6"/>
<path d="M506.512 517.604H514.138V499.708H498.492L506.512 517.604Z" fill="#F0F0F0"/>
<path d="M327.33 318.783H281.438V517.604H327.33V318.783Z" fill="#E6E6E6"/>
<path d="M514.151 318.783H320.677V510.727H514.151V318.783Z" fill="#F0F0F0"/>
<path d="M508.225 327.289H326.603V379.935H508.225V327.289Z" fill="#E6E6E6"/>
<path d="M425.989 343.652H408.827C401.435 343.652 394.252 337.154 389.115 325.692H445.676C440.563 337.154 433.442 343.652 425.989 343.652Z" fill="#F0F0F0"/>
<path d="M328.316 517.604H320.677V499.708H336.324L328.316 517.604Z" fill="#F0F0F0"/>
<path d="M508.225 388.44H326.603V441.086H508.225V388.44Z" fill="#E6E6E6"/>
<path d="M425.989 404.724H408.827C401.435 404.724 394.252 398.242 389.115 386.764H445.676C440.563 398.305 433.442 404.724 425.989 404.724Z" fill="#F0F0F0"/>
<path d="M508.225 449.592H326.603V502.237H508.225V449.592Z" fill="#E6E6E6"/>
<path d="M425.989 465.939H408.827C401.435 465.939 394.252 459.441 389.115 447.979H445.676C440.563 459.441 433.442 465.939 425.989 465.939Z" fill="#F0F0F0"/>
<path d="M535.045 60.9457H336.866V184.387H535.045V60.9457Z" fill="#F0F0F0"/>
<path d="M542.191 60.9457H340.204V184.387H542.191V60.9457Z" fill="#F5F5F5"/>
<path d="M532.199 174.126V71.222L350.208 71.222V174.126H532.199Z" fill="white"/>
<path d="M475.01 275.181C478.583 227.752 481.059 150.633 479.137 124.864C479.1 124.422 478.991 123.995 478.817 123.611C478.643 123.227 478.408 122.894 478.127 122.635C477.754 122.284 477.312 122.076 476.851 122.033C476.39 121.99 475.929 122.114 475.521 122.39C475.112 122.667 474.773 123.086 474.541 123.599C474.309 124.112 474.194 124.698 474.209 125.291C474.542 138.065 474.936 169.984 472.817 225.049C471.757 252.447 470.242 271.213 471.289 275.181H475.01Z" fill="#217037"/>
<path d="M485.248 173.051C493.404 159.581 510.282 148.926 527.579 147.297C534.368 146.649 507.091 164.024 495.855 181.383C487.145 194.853 477.375 217.049 474.123 229.159C476.032 204.164 477.08 186.553 485.248 173.051Z" fill="#02AB31"/>
<path d="M468.16 170.142C459.721 155.06 440.231 143.44 419.139 142.128C410.86 141.622 442.362 160.562 454.115 179.976C463.244 195.042 472.595 220.021 475.182 233.728C475.811 205.303 476.612 185.24 468.16 170.142Z" fill="#02AB31"/>
<path d="M484.681 128.658C491.124 117.417 505.354 108.185 520.409 106.303C526.323 105.56 503.334 120.532 494.414 135.108C487.478 146.365 480.11 164.783 477.893 174.759C478.262 154.317 478.25 139.899 484.681 128.658Z" fill="#02AB31"/>
<path d="M471.708 130.966C464.55 118.176 448.054 108.359 430.19 107.252C423.18 106.825 449.902 122.856 459.758 139.298C467.495 152.056 475.429 173.209 477.609 184.813C478.176 160.72 478.854 143.74 471.708 130.966Z" fill="#02AB31"/>
<path d="M480.357 223.768C485.014 215.294 495.473 208.164 506.648 206.457C511.034 205.793 494.131 217.413 487.675 228.369C482.661 236.874 477.4 250.692 475.872 258.138C475.885 242.945 475.712 232.242 480.357 223.768Z" fill="#02AB31"/>
<path d="M471.856 218.994C467.815 210.583 457.811 203.485 446.662 201.777C442.276 201.113 458.44 212.67 464.119 223.531C468.517 231.973 472.743 245.664 473.729 253.063C474.936 238.013 475.946 227.404 471.856 218.994Z" fill="#02AB31"/>
<path d="M473.495 318.783C482.402 318.783 489.757 316.396 490.262 304.998L491.753 272.003H455.249L456.739 304.998C457.244 316.396 464.599 318.783 473.495 318.783Z" fill="#00132E"/>
<path d="M455.458 279.513H491.568C492.275 279.51 492.956 279.173 493.481 278.566C494.006 277.96 494.338 277.126 494.414 276.224L494.968 269.9C495.011 269.385 494.97 268.864 494.846 268.371C494.722 267.877 494.519 267.423 494.249 267.037C493.98 266.651 493.65 266.342 493.282 266.13C492.913 265.917 492.514 265.807 492.11 265.806H454.916C454.512 265.807 454.113 265.917 453.744 266.13C453.376 266.342 453.046 266.651 452.777 267.037C452.507 267.423 452.304 267.877 452.18 268.371C452.056 268.864 452.015 269.385 452.058 269.9L452.6 276.224C452.679 277.127 453.013 277.961 453.54 278.568C454.068 279.174 454.75 279.51 455.458 279.513Z" fill="#00132E"/>
<path d="M339.108 318.783H314.899L322.069 250.692H339.108V318.783Z" fill="#E6E6E6"/>
<path d="M374.639 318.783H328.759L320.209 239.088H366.101L374.639 318.783Z" fill="#F0F0F0"/>
<path d="M380.762 318.783H333.022L324.484 239.088H372.224L380.762 318.783Z" fill="#F5F5F5"/>
<path d="M337.235 312.507L330.04 245.364H367.998L375.193 312.507H337.235Z" fill="white"/>
<path d="M358.635 297.014H349.592C348.806 297.016 348.045 296.651 347.451 295.989C346.858 295.326 346.472 294.409 346.364 293.409L343.383 265.6C343.317 265.009 343.351 264.406 343.483 263.833C343.615 263.26 343.841 262.731 344.147 262.28C344.456 261.833 344.836 261.476 345.26 261.231C345.685 260.985 346.145 260.858 346.611 260.857H355.654C356.44 260.859 357.199 261.224 357.792 261.886C358.385 262.549 358.772 263.463 358.882 264.462L361.863 292.271C361.926 292.862 361.89 293.464 361.757 294.036C361.624 294.607 361.397 295.136 361.091 295.585C360.785 296.035 360.407 296.395 359.984 296.641C359.56 296.888 359.1 297.015 358.635 297.014ZM347.547 293.188C347.615 293.809 347.856 294.379 348.225 294.791C348.594 295.203 349.066 295.431 349.555 295.433H358.598C358.887 295.434 359.173 295.356 359.437 295.203C359.701 295.05 359.935 294.827 360.126 294.547C360.315 294.265 360.456 293.935 360.539 293.578C360.622 293.221 360.645 292.846 360.606 292.476L357.625 264.683C357.557 264.062 357.316 263.492 356.947 263.08C356.578 262.668 356.106 262.44 355.617 262.438H346.574C346.284 262.435 345.998 262.512 345.734 262.665C345.47 262.818 345.236 263.043 345.046 263.324C344.853 263.599 344.71 263.927 344.626 264.282C344.543 264.637 344.523 265.012 344.566 265.379L347.547 293.188Z" fill="#F5F5F5"/>
<path d="M260.568 57.3096H77.7639V304.855H260.568V57.3096Z" fill="#E6E6E6"/>
<path d="M280.169 49.2941H65.9366C65.6977 49.2941 65.4612 49.3548 65.2407 49.4725C65.0201 49.5903 64.8199 49.7629 64.6516 49.9804C64.4833 50.1979 64.3501 50.4559 64.2598 50.7397C64.1696 51.0235 64.1239 51.3274 64.1255 51.6339C64.1255 52.2503 64.3163 52.8414 64.656 53.2773C64.9956 53.7131 65.4563 53.9579 65.9366 53.9579H280.169C280.649 53.9579 281.11 53.7131 281.45 53.2773C281.789 52.8414 281.98 52.2503 281.98 51.6339C281.982 51.3274 281.936 51.0235 281.846 50.7397C281.755 50.4559 281.622 50.1979 281.454 49.9804C281.286 49.7629 281.085 49.5903 280.865 49.4725C280.644 49.3548 280.408 49.2941 280.169 49.2941Z" fill="#E6E6E6"/>
<path d="M268.342 57.3096H81.3983V304.855H268.342V57.3096Z" fill="#F0F0F0"/>
<path d="M257.476 290.927V71.2536L92.2522 71.2536V290.927H257.476Z" fill="#FAFAFA"/>
<path d="M129.754 290.927L193.498 71.2378H223.583L159.852 290.927H129.754Z" fill="white"/>
<path d="M166.308 290.927L230.051 71.2378H241.78L178.036 290.927H166.308Z" fill="white"/>
<path d="M257.476 290.911V71.2378H256.096V290.911H257.476Z" fill="#E6E6E6"/>
<g opacity="0.6">
<path opacity="0.6" d="M87.7676 400.092H64.8154L68.4498 45.1362H91.4143L87.7676 400.092Z" fill="#F0F0F0"/>
<path opacity="0.6" d="M96.712 400.092H78.8234L82.4701 45.1362H100.346L96.712 400.092Z" fill="#E6E6E6"/>
<path opacity="0.6" d="M110.72 400.092H87.7676L91.4143 45.1362H114.366L110.72 400.092Z" fill="#F0F0F0"/>
<path opacity="0.6" d="M119.664 400.092H101.776L105.422 45.1362H123.311L119.664 400.092Z" fill="#E6E6E6"/>
<path opacity="0.6" d="M133.672 400.092H110.72L114.367 45.1362H137.319L133.672 400.092Z" fill="#F0F0F0"/>
</g>
<g opacity="0.6">
<path opacity="0.6" d="M264.547 400.092H277.52L279.257 45.1362H266.284L264.547 400.092Z" fill="#F0F0F0"/>
<path opacity="0.6" d="M259.496 400.092H269.599L271.348 45.1362H261.233L259.496 400.092Z" fill="#E6E6E6"/>
<path opacity="0.6" d="M251.574 400.092H264.547L266.284 45.1362H253.311L251.574 400.092Z" fill="#F0F0F0"/>
<path opacity="0.6" d="M246.523 400.092H256.626L258.375 45.1362H248.26L246.523 400.092Z" fill="#E6E6E6"/>
<path opacity="0.6" d="M238.601 400.092H251.574L253.312 45.1362H240.339L238.601 400.092Z" fill="#F0F0F0"/>
</g>
<path d="M308 589C439.926 589 546.873 580.988 546.873 571.104C546.873 561.22 439.926 553.207 308 553.207C176.074 553.207 69.1276 561.22 69.1276 571.104C69.1276 580.988 176.074 589 308 589Z" fill="#F5F5F5"/>
<path d="M350.652 100.849C343.26 88.0117 344.972 76.8027 350.652 68.7398C357.736 58.6217 369.304 58.7008 377.017 63.8705C389.09 71.9492 391.69 107.347 371.522 112.343C364.366 109.137 357.393 105.296 350.652 100.849Z" fill="#263238"/>
<path d="M374.663 66.0996C382.055 60.5189 379.998 49.6893 386.675 43.9663C395.965 36.0615 415.985 39.4922 409.726 59.2541C403.468 79.016 425.742 80.1543 419.274 99.7898C412.806 119.425 394.018 131.409 389.189 102.952C385.579 81.6246 400.917 54.1476 388.536 57.104C380.811 58.9379 378.236 69.1351 378.236 69.1351L374.663 66.0996Z" fill="#263238"/>
<path d="M356.294 149.795C355.284 153.384 354.188 156.641 353.017 160.008C351.847 163.376 350.553 166.617 349.198 169.858C346.47 176.659 343.043 182.96 339.009 188.592C337.856 190.169 336.59 191.603 335.227 192.876C333.88 194.103 332.444 195.162 330.94 196.038C328.168 197.629 325.279 198.858 322.316 199.706C316.701 201.37 310.953 202.171 305.191 202.093C304.545 202.08 303.924 201.766 303.444 201.21C302.964 200.654 302.657 199.894 302.58 199.07C302.504 198.246 302.662 197.414 303.027 196.729C303.391 196.044 303.937 195.551 304.563 195.343H304.686C309.84 193.796 314.913 191.837 319.877 189.477C322.21 188.362 324.468 187.003 326.628 185.414C327.59 184.706 328.505 183.897 329.363 182.995C330.193 182.104 330.96 181.12 331.654 180.055C333.241 177.649 334.671 175.079 335.929 172.371C337.26 169.573 338.541 166.68 339.724 163.66C342.065 157.684 344.282 151.297 346.192 145.163V145.068C346.698 143.364 347.712 141.987 349.009 141.242C350.306 140.496 351.781 140.442 353.11 141.092C354.438 141.742 355.511 143.042 356.092 144.707C356.673 146.372 356.715 148.265 356.208 149.969L356.294 149.795Z" fill="#B55B52"/>
<path d="M354.693 138.096C344.516 139.582 338.911 159.17 338.911 159.17L349.334 178.015C349.334 178.015 361.654 160.103 362.725 152.104C363.797 143.867 362.208 136.974 354.693 138.096Z" fill="#263238"/>
<path opacity="0.2" d="M349.124 150.08C352.537 147.329 356.257 148.847 359.424 153.953C360.078 155.419 360.517 157.027 360.717 158.696C357.637 165.858 349.321 178 349.321 178L344.553 169.383C344.196 164.293 346.919 151.772 349.124 150.08Z" fill="black"/>
<path d="M307.051 196.038L299.376 190.726L299.167 203.564C299.167 203.564 304.292 204.986 307.68 201.477L307.051 196.038Z" fill="#B55B52"/>
<path d="M291.676 191.169L293.019 201.651L299.216 203.564L299.425 190.726L291.676 191.169Z" fill="#B55B52"/>
<path d="M330.361 168.071L323.634 160.988L277.804 249.348L284.592 256.431C292.329 264.557 308.85 251.372 321.552 226.962C334.254 202.552 338.098 176.197 330.361 168.071Z" fill="#31A592"/>
<path opacity="0.1" d="M330.361 168.071L323.634 160.988L277.804 249.348L284.592 256.431C292.329 264.557 308.85 251.372 321.552 226.962C334.254 202.552 338.098 176.197 330.361 168.071Z" fill="#31A592"/>
<path d="M315.926 217.513C328.152 192.714 331.259 167.084 322.864 160.269C314.469 153.453 297.751 168.032 285.525 192.832C273.298 217.632 270.192 243.261 278.587 250.076C286.982 256.892 303.699 242.313 315.926 217.513Z" fill="#31A592"/>
<path d="M292.218 219.658L298.378 207.737C297.752 205.293 297.722 202.663 298.292 200.196C298.997 197.086 300.091 194.144 301.532 191.485C302.831 188.798 304.531 186.466 306.534 184.624C308.246 183.169 309.712 182.821 310.908 183.58L312.411 180.703L313.716 182.078L312.238 184.972C312.639 185.777 312.908 186.679 313.026 187.623C313.145 188.566 313.111 189.531 312.928 190.457C312.448 193.247 311.616 195.918 310.464 198.362L307.692 196.908C308.554 195.221 308.985 193.232 308.924 191.216L303.146 202.283C303.941 204.791 304.105 207.555 303.614 210.188C302.044 216.508 299.042 222.083 294.99 226.203C293.117 227.868 291.454 228.348 290 227.641L288.51 230.519L287.204 229.143L288.621 226.408C288.18 225.468 287.896 224.42 287.788 223.331C287.679 222.243 287.749 221.137 287.992 220.085C288.659 216.56 289.756 213.192 291.245 210.109L294.078 211.848C293.451 213.269 292.947 214.775 292.575 216.338C292.308 217.409 292.187 218.533 292.218 219.658ZM307.717 189.714C307.03 189.801 306.382 190.166 305.869 190.758C304.439 192.274 303.382 194.29 302.826 196.56C302.571 197.526 302.5 198.555 302.616 199.564L307.717 189.714ZM293.327 221.333C293.705 221.407 294.092 221.372 294.459 221.23C294.825 221.087 295.163 220.842 295.446 220.511C297.208 218.751 298.499 216.331 299.142 213.587C299.388 212.488 299.366 211.318 299.08 210.235L293.327 221.333Z" fill="white"/>
<path opacity="0.1" d="M321.614 190.315C322.525 182.568 321.614 176.355 318.755 173.304C312.46 166.68 299.043 177.43 288.682 197.303C284.327 205.488 281.113 214.582 279.184 224.179C280.243 215.105 283.754 203.927 289.311 193.192C299.622 173.32 313.088 162.585 319.384 169.194C322.784 172.751 323.4 180.671 321.614 190.315Z" fill="black"/>
<path d="M410.934 485.052L400.585 486.317L395.312 455.378L405.661 454.113L410.934 485.052Z" fill="#B55B52"/>
<path d="M468.579 465.923L458.957 470.76L449.68 441.418L459.302 436.58L468.579 465.923Z" fill="#B55B52"/>
<path d="M456.16 464.69L466.706 457.955C466.888 457.839 467.096 457.811 467.292 457.875C467.489 457.938 467.661 458.09 467.778 458.303L473.125 468.247C473.26 468.504 473.351 468.796 473.391 469.103C473.431 469.409 473.418 469.723 473.355 470.023C473.292 470.323 473.18 470.602 473.025 470.841C472.87 471.08 472.678 471.274 472.46 471.409C468.764 473.685 467.137 474.808 462.493 477.732C459.635 479.551 453.265 483.835 449.323 486.349C445.38 488.862 443.237 483.993 444.703 482.491C451.269 475.772 453.438 470.697 454.879 466.444C455.133 465.685 455.586 465.064 456.16 464.69Z" fill="#263238"/>
<path d="M398.564 479.424H411.007C411.23 479.425 411.446 479.52 411.622 479.694C411.798 479.869 411.924 480.113 411.981 480.388L414.691 493.036C414.759 493.334 414.771 493.649 414.726 493.955C414.682 494.26 414.581 494.548 414.434 494.794C414.286 495.041 414.095 495.239 413.877 495.373C413.658 495.507 413.418 495.573 413.176 495.566C408.827 495.471 406.745 495.566 401.275 495.566H384.569C380.023 495.566 379.025 489.653 380.873 489.131C389.312 486.728 394.178 483.424 396.778 480.278C397.264 479.706 397.905 479.4 398.564 479.424Z" fill="#263238"/>
<path opacity="0.2" d="M395.324 455.394L398.035 471.33H408.605L405.673 454.113L395.324 455.394Z" fill="black"/>
<path opacity="0.2" d="M459.302 436.596L449.68 441.434L454.473 456.548L464.082 451.71L459.302 436.596Z" fill="black"/>
<path d="M386.281 124.737C394.511 123.52 399.833 128.547 400.203 139.092C401.287 176.26 404.49 184.813 409.332 204.038L368.294 218.693C353.707 178.158 348.582 159.044 346.956 150.048C346.618 147.958 346.822 145.782 347.539 143.855C348.255 141.928 349.444 140.355 350.923 139.377C361.847 131.568 373.861 126.594 386.281 124.737Z" fill="#263238"/>
<path d="M373.801 99.8214C374.294 107.932 375.932 121.955 381.193 125.67C381.193 125.67 380.417 130.682 366.816 147.392C358.426 138.318 362.713 132.231 362.713 132.231C368.959 127.788 367.493 122.002 365.029 116.421L373.801 99.8214Z" fill="#B55B52"/>
<path opacity="0.2" d="M372.853 101.639C373.75 106.249 373.876 111.05 373.222 115.726C372.754 118.888 370.068 121.291 367.062 122.666C366.652 120.47 365.979 118.368 365.066 116.437L372.853 101.639Z" fill="black"/>
<path d="M376.216 84.5019C378.224 97.608 379.296 103.094 375.575 111.378C369.97 123.899 356.984 124.215 351.958 112.137C347.436 101.276 344.898 81.672 353.695 73.2297C355.629 71.359 357.905 70.1542 360.304 69.7299C362.704 69.3056 365.149 69.6758 367.405 70.8053C369.662 71.9349 371.656 73.7863 373.198 76.1836C374.74 78.5808 375.779 81.4443 376.216 84.5019Z" fill="#B55B52"/>
<path d="M381.55 92.4857C381.7 93.7494 381.654 95.0387 381.412 96.2789C381.171 97.5191 380.741 98.6856 380.146 99.7107C378.544 102.446 376.13 101.118 375.218 98.1297C374.405 95.4105 374.245 90.6993 376.511 89.0551C377.007 88.706 377.563 88.5206 378.129 88.5155C378.695 88.5105 379.252 88.686 379.752 89.0262C380.252 89.3664 380.678 89.8607 380.992 90.4646C381.306 91.0685 381.498 91.763 381.55 92.4857Z" fill="#B55B52"/>
<path d="M367.259 77.5616C366.877 82.5732 370.007 91.142 375.883 93.134C381.969 84.1541 377.953 71.8385 372.36 71.5855C366.766 71.3326 367.259 77.5616 367.259 77.5616Z" fill="#263238"/>
<path d="M359.054 63.9021C350.073 64.4238 340.439 69.5619 343.777 87.6164C351.613 85.5138 373.419 82.3835 375.095 75.2059C372.889 65.989 364.943 63.5543 359.054 63.9021Z" fill="#263238"/>
<path d="M368.294 218.693C368.294 218.693 365.904 325.06 372.569 365.2C379.481 406.969 395.09 466.666 395.09 466.666L409.751 465.448C409.751 465.448 400.277 387.397 397.431 355.193C393.415 310.8 398.404 207.927 398.404 207.927L368.294 218.693Z" fill="#407BFF"/>
<path opacity="0.2" d="M388.942 251.957C389.608 242.313 395.275 244.162 396.544 257.221C395.989 277.773 395.595 301.63 395.915 322.514C389.805 307.195 387.427 273.9 388.942 251.957Z" fill="black"/>
<path d="M411.611 466.666L393.957 468.199L391.505 457.575L410.613 454.983L411.611 466.666Z" fill="#263238"/>
<path d="M382.77 213.524C382.77 213.524 395.263 302.689 412.227 350.671C425.927 389.42 450.752 451.852 450.752 451.852L464.218 445.386C464.218 445.386 443.163 374.512 435.549 347.256C416.589 279.275 426.925 238.013 409.332 204.038L382.77 213.524Z" fill="#407BFF"/>
<path d="M465.807 447.03L450.271 453.971L445.849 443.758L464.341 437.877L465.807 447.03Z" fill="#263238"/>
<path d="M409.27 200.781L412.153 204.844C412.375 205.16 412.153 205.65 411.636 205.808L368.602 221.191C368.232 221.318 367.875 221.191 367.789 220.907L366.397 216.322C366.298 216.006 366.557 215.61 366.964 215.468L408.519 200.623C408.644 200.561 408.779 200.543 408.911 200.571C409.044 200.599 409.167 200.671 409.27 200.781Z" fill="#263238"/>
<path d="M404.983 208.686L406.104 208.275C406.326 208.196 406.461 207.99 406.4 207.816L404.552 201.888C404.552 201.714 404.281 201.635 404.059 201.714L402.938 202.109C402.716 202.109 402.581 202.394 402.63 202.568L404.49 208.512C404.54 208.686 404.761 208.765 404.983 208.686Z" fill="#407BFF"/>
<path d="M371.842 220.511L372.963 220.116C373.173 220.116 373.321 219.832 373.259 219.658L371.411 213.729C371.411 213.555 371.128 213.476 370.906 213.555L369.797 213.95C369.575 213.95 369.44 214.235 369.489 214.409L371.337 220.353C371.399 220.527 371.621 220.59 371.842 220.511Z" fill="#407BFF"/>
<path d="M388.413 214.599L389.534 214.203C389.755 214.124 389.891 213.919 389.829 213.745L387.981 207.801C387.981 207.627 387.698 207.548 387.476 207.627L386.367 208.022C386.146 208.022 386.01 208.322 386.059 208.496L387.92 214.425C387.969 214.599 388.191 214.678 388.413 214.599Z" fill="#407BFF"/>
<path d="M361.703 93.2763C361.912 94.3355 361.703 95.3315 361.124 95.5054C360.545 95.6793 359.978 94.9837 359.769 93.9245C359.559 92.8652 359.769 91.885 360.348 91.6953C360.927 91.5056 361.493 92.1854 361.703 93.2763Z" fill="#263238"/>
<path d="M352.451 96.3433C352.672 97.3867 352.451 98.3827 351.872 98.5724C351.292 98.7621 350.726 98.0349 350.516 96.9915C350.307 95.948 350.516 94.9362 351.095 94.7623C351.674 94.5884 352.241 95.284 352.451 96.3433Z" fill="#263238"/>
<path d="M351.342 94.7465L349.235 94.6675C349.235 94.6675 350.639 96.3117 351.342 94.7465Z" fill="#263238"/>
<path d="M355.272 97.3235C355.03 99.9636 354.508 102.549 353.719 105.007C354.214 105.25 354.744 105.35 355.272 105.301C355.8 105.252 356.313 105.054 356.775 104.722L355.272 97.3235Z" fill="#A02724"/>
<path d="M360.397 107.9C360.35 107.889 360.306 107.861 360.271 107.819C360.236 107.777 360.211 107.723 360.2 107.663C360.191 107.623 360.188 107.582 360.192 107.541C360.195 107.5 360.206 107.461 360.222 107.425C360.238 107.39 360.26 107.359 360.286 107.334C360.311 107.31 360.341 107.293 360.372 107.283C361.397 106.972 362.349 106.354 363.152 105.481C363.955 104.607 364.586 103.502 364.992 102.256C365.002 102.215 365.018 102.177 365.04 102.144C365.061 102.111 365.088 102.084 365.118 102.065C365.148 102.046 365.181 102.034 365.214 102.032C365.248 102.029 365.281 102.036 365.313 102.051C365.373 102.079 365.422 102.136 365.452 102.209C365.482 102.282 365.489 102.366 365.473 102.446C365.048 103.792 364.38 104.989 363.523 105.938C362.666 106.886 361.645 107.559 360.545 107.9C360.497 107.919 360.445 107.919 360.397 107.9Z" fill="#263238"/>
<path d="M363.514 88.5334C363.426 88.5189 363.344 88.4691 363.28 88.3911C362.802 87.8771 362.235 87.5172 361.626 87.3412C361.017 87.1652 360.385 87.1783 359.781 87.3793C359.655 87.4294 359.519 87.4145 359.402 87.3378C359.284 87.261 359.195 87.1284 359.153 86.9682C359.13 86.8895 359.119 86.8055 359.122 86.7215C359.126 86.6375 359.142 86.5552 359.171 86.4797C359.2 86.4042 359.24 86.337 359.29 86.2824C359.34 86.2277 359.398 86.1867 359.461 86.1619C360.223 85.8964 361.024 85.8698 361.795 86.0844C362.567 86.299 363.288 86.7485 363.896 87.3951C363.978 87.4849 364.036 87.6062 364.061 87.7413C364.085 87.8763 364.075 88.0179 364.033 88.1453C363.99 88.2727 363.917 88.3792 363.823 88.449C363.73 88.5188 363.621 88.5484 363.514 88.5334Z" fill="#263238"/>
<path d="M346.944 92.296H346.845C346.783 92.2693 346.726 92.2273 346.678 92.1722C346.629 92.1171 346.589 92.0502 346.56 91.9752C346.531 91.9003 346.515 91.8188 346.511 91.7355C346.507 91.6521 346.516 91.5686 346.537 91.4898C346.777 90.5241 347.194 89.6466 347.754 88.9312C348.314 88.2158 348.999 87.6836 349.753 87.3793C349.816 87.3579 349.881 87.3529 349.946 87.3645C350.011 87.376 350.073 87.4039 350.129 87.4466C350.185 87.4892 350.234 87.5458 350.273 87.6129C350.312 87.6801 350.34 87.7565 350.356 87.8378C350.386 88.0033 350.364 88.1772 350.295 88.3221C350.226 88.4669 350.115 88.5712 349.987 88.6124C349.401 88.869 348.872 89.3013 348.444 89.8733C348.015 90.4453 347.699 91.1404 347.523 91.9008C347.481 92.0464 347.399 92.1671 347.292 92.24C347.185 92.3129 347.061 92.3328 346.944 92.296Z" fill="#263238"/>
<path d="M395.164 149.621C391.961 158.095 388.634 166.411 385.123 174.68C383.374 178.822 381.624 182.964 379.764 187.043C377.904 191.121 376.068 195.216 373.863 199.311C373.358 200.323 372.729 201.398 372.138 202.473L371.916 202.852L371.805 203.058L371.62 203.358C371.362 203.769 371.103 204.117 370.844 204.465C370.374 205.077 369.867 205.643 369.329 206.156C367.555 207.821 365.626 209.197 363.588 210.251C359.991 212.115 356.283 213.606 352.5 214.709C345.258 216.857 337.904 218.332 330.496 219.12L329.659 212.385C333.096 211.215 336.595 209.982 340.032 208.702C343.469 207.421 346.882 206.061 350.208 204.575C353.447 203.175 356.612 201.507 359.682 199.58C360.977 198.761 362.196 197.758 363.317 196.592C363.5 196.396 363.669 196.179 363.822 195.943C363.867 195.873 363.908 195.799 363.945 195.722L364.216 195.184C364.647 194.315 365.091 193.493 365.534 192.513C367.284 188.734 369.009 184.687 370.684 180.64L375.674 168.356L385.53 143.566L395.164 149.621Z" fill="#B55B52"/>
<path d="M333.034 212.449L325.778 208.876L326.394 222.013C326.394 222.013 332.098 222.013 334.734 217.508L333.034 212.449Z" fill="#B55B52"/>
<path d="M320.074 209.255L318.521 218.915L326.394 222.013L325.778 208.876L320.074 209.255Z" fill="#B55B52"/>
<path d="M386.232 131.535C382.179 133.923 377.472 155.534 377.472 155.534L395.028 158.095C395.028 158.095 398.429 147.598 397.739 142.207C396.704 133.591 390.852 128.816 386.232 131.535Z" fill="#263238"/>
<path d="M450.912 468.547C450.844 468.398 450.79 468.239 450.752 468.073C450.695 467.896 450.676 467.703 450.698 467.513C450.72 467.324 450.781 467.146 450.875 466.998C451.725 465.67 455.495 466.207 455.914 466.271C455.962 466.275 456.009 466.299 456.046 466.338C456.084 466.378 456.111 466.432 456.123 466.492C456.139 466.55 456.14 466.613 456.127 466.673C456.114 466.732 456.087 466.785 456.049 466.824C454.978 467.978 452.982 469.828 451.7 469.353C451.532 469.298 451.375 469.197 451.239 469.058C451.103 468.92 450.992 468.745 450.912 468.547ZM455.261 466.824C453.746 466.666 451.713 466.697 451.257 467.393C451.222 467.467 451.204 467.552 451.204 467.638C451.204 467.724 451.222 467.809 451.257 467.883C451.293 468.084 451.369 468.269 451.476 468.421C451.584 468.573 451.721 468.688 451.873 468.753C452.551 469.006 453.807 468.294 455.286 466.824H455.261Z" fill="#407BFF"/>
<path d="M451.836 464.184C451.788 464.068 451.751 463.946 451.725 463.82C451.674 463.576 451.689 463.316 451.767 463.083C451.845 462.851 451.982 462.659 452.156 462.54C452.317 462.405 452.498 462.317 452.687 462.282C452.876 462.246 453.069 462.264 453.253 462.334C454.719 462.84 456.074 466.302 456.136 466.444C456.157 466.493 456.169 466.547 456.169 466.603C456.169 466.658 456.157 466.713 456.136 466.761C456.111 466.806 456.078 466.843 456.039 466.868C456 466.893 455.957 466.905 455.914 466.903C454.346 466.646 452.901 465.682 451.836 464.184ZM455.421 466.097C454.916 464.958 453.98 463.235 453.117 462.935C453.004 462.888 452.884 462.875 452.767 462.897C452.65 462.919 452.538 462.975 452.44 463.061C452.169 463.283 452.169 463.488 452.206 463.63C452.39 464.547 454.214 465.828 455.458 466.16L455.421 466.097Z" fill="#407BFF"/>
<path d="M393.008 482.049C392.146 482.138 391.284 481.878 390.544 481.305C390.349 481.125 390.19 480.887 390.081 480.612C389.972 480.337 389.915 480.033 389.916 479.724C389.898 479.557 389.918 479.387 389.972 479.233C390.027 479.079 390.114 478.948 390.224 478.855C391.345 477.875 395.583 480.341 396.384 480.847C396.432 480.876 396.472 480.923 396.499 480.983C396.525 481.042 396.537 481.111 396.531 481.179C396.525 481.245 396.502 481.306 396.467 481.354C396.431 481.402 396.385 481.435 396.334 481.448C395.245 481.797 394.13 481.998 393.008 482.049ZM391.024 479.298C390.853 479.285 390.682 479.334 390.532 479.44C390.532 479.44 390.433 479.551 390.445 479.74C390.449 479.948 390.489 480.151 390.564 480.335C390.639 480.519 390.746 480.678 390.877 480.8C391.603 481.511 393.341 481.606 395.558 481.068C394.139 480.187 392.622 479.589 391.061 479.298H391.024Z" fill="#407BFF"/>
<path d="M396.396 481.511H396.297C394.893 480.784 392.059 477.859 392.22 476.357C392.22 476.025 392.429 475.614 393.07 475.519C395.534 475.14 396.593 480.91 396.642 481.147C396.65 481.205 396.646 481.264 396.631 481.32C396.616 481.375 396.59 481.424 396.556 481.464C396.508 481.501 396.452 481.518 396.396 481.511ZM393.304 476.104H393.131C392.873 476.104 392.737 476.246 392.712 476.404C392.626 477.274 394.585 479.566 396.014 480.578C395.681 479.203 394.794 476.104 393.304 476.104Z" fill="#407BFF"/>
<path d="M360.594 91.6953H358.475C358.475 91.6953 359.892 93.2762 360.594 91.6953Z" fill="#263238"/>
<path d="M365.436 495.581H432.851C433.315 495.581 433.76 495.818 434.088 496.239C434.416 496.66 434.6 497.231 434.6 497.826V505.13H363.699V497.826C363.699 497.234 363.881 496.665 364.207 496.245C364.532 495.824 364.974 495.586 365.436 495.581Z" fill="#263238"/>
<path d="M435.204 529.303H364.302V538.836H435.204V529.303Z" fill="#263238"/>
<path opacity="0.5" d="M435.204 529.303H388.326V538.836H435.204V529.303Z" fill="black"/>
<path d="M395.152 505.115L387.181 569.143C387.114 569.67 386.904 570.149 386.588 570.496C386.273 570.843 385.872 571.036 385.456 571.04H381.55C381.298 571.04 381.049 570.969 380.82 570.833C380.591 570.697 380.387 570.499 380.223 570.253C380.059 570.007 379.939 569.718 379.87 569.406C379.802 569.095 379.786 568.768 379.826 568.448L387.723 505.051L395.152 505.115Z" fill="#263238"/>
<path opacity="0.5" d="M395.152 505.115L394.548 509.984H387.107L387.723 505.115H395.152Z" fill="black"/>
<path d="M371.128 505.115L363.157 569.143C363.09 569.67 362.88 570.149 362.564 570.496C362.249 570.843 361.848 571.036 361.432 571.04H357.526C357.274 571.04 357.025 570.969 356.796 570.833C356.567 570.697 356.363 570.499 356.199 570.253C356.035 570.007 355.915 569.718 355.846 569.406C355.778 569.095 355.762 568.768 355.802 568.448L363.699 505.051L371.128 505.115Z" fill="#263238"/>
<path d="M442.485 568.511L434.6 505.115H427.208L435.142 569.143C435.207 569.671 435.416 570.152 435.732 570.5C436.048 570.848 436.451 571.039 436.867 571.04H440.76C441.008 571.038 441.252 570.969 441.477 570.837C441.703 570.705 441.903 570.513 442.066 570.274C442.229 570.035 442.351 569.754 442.423 569.45C442.495 569.146 442.517 568.826 442.485 568.511Z" fill="#263238"/>
<path opacity="0.5" d="M435.204 509.984L434.6 505.115H427.159L427.763 509.984H435.204Z" fill="black"/>
<path d="M418.461 568.511L410.576 505.115H403.184L411.118 569.143C411.183 569.671 411.392 570.152 411.708 570.5C412.024 570.848 412.427 571.039 412.843 571.04H416.736C416.984 571.038 417.228 570.969 417.453 570.837C417.679 570.705 417.879 570.513 418.042 570.274C418.205 570.035 418.327 569.754 418.399 569.45C418.471 569.146 418.492 568.826 418.461 568.511Z" fill="#263238"/>
<path opacity="0.5" d="M418.461 568.511L410.576 505.115H403.184L411.118 569.143C411.183 569.671 411.392 570.152 411.708 570.5C412.024 570.848 412.427 571.039 412.843 571.04H416.736C416.984 571.038 417.228 570.969 417.453 570.837C417.679 570.705 417.879 570.513 418.042 570.274C418.205 570.035 418.327 569.754 418.399 569.45C418.471 569.146 418.492 568.826 418.461 568.511Z" fill="black"/>
<path opacity="0.5" d="M387.723 495.581H432.851C433.315 495.581 433.76 495.818 434.088 496.239C434.416 496.66 434.6 497.231 434.6 497.826V505.13H387.784V495.645L387.723 495.581Z" fill="black"/>
<path d="M179.601 562.393L189.469 539.153L154.172 499.455L151.413 562.393H179.601Z" fill="#31A592"/>
<path opacity="0.1" d="M179.601 562.393L189.469 539.153L154.172 499.455L151.413 562.393H179.601Z" fill="black"/>
<path d="M301.249 297.567C321.047 280.177 337.63 281.963 343.137 287.038C348.644 292.113 331.149 330.656 331.149 330.656C324.607 328.217 318.55 324 313.391 318.29C308.231 312.581 304.09 305.513 301.249 297.567V297.567Z" fill="#31A592"/>
<path opacity="0.2" d="M310.673 315.037C321.823 300.982 333.194 296.476 336.274 298.832C339.354 301.187 329.461 328.285 329.461 328.285C329.461 328.285 316.094 330.751 310.673 315.037Z" fill="black"/>
<path d="M129.225 352.078L128.103 351.351C131.199 343.535 134.84 336.095 138.982 329.123L139.98 330.103C135.89 337.001 132.29 344.355 129.225 352.078V352.078Z" fill="#31A592"/>
<path d="M123.36 369.943L122.128 369.421C123.064 365.896 124.124 362.37 125.282 358.955L126.44 359.604C125.331 362.955 124.284 366.433 123.36 369.943Z" fill="#31A592"/>
<path d="M353.72 413.815C353.72 492.309 307.667 555.926 241.189 555.926C174.71 555.926 120.822 492.309 120.822 413.815C120.822 335.32 174.71 271.703 241.189 271.703C307.667 271.703 353.72 335.32 353.72 413.815Z" fill="#31A592"/>
<path opacity="0.1" d="M225.148 540.876L220.331 553.808C223.813 554.535 227.349 555.062 230.938 555.389L225.148 540.876Z" fill="black"/>
<path d="M217.855 571.104L231.702 539.153L187.412 518.379L181.745 571.104H217.855Z" fill="#31A592"/>
<path d="M282.362 571.104L270.362 539.153L312.534 518.379L315.33 571.104H282.362Z" fill="#31A592"/>
<path opacity="0.2" d="M312.657 434.351C312.657 455.599 298.021 472.816 280.021 472.816C262.022 472.816 247.447 455.599 247.447 434.351C247.447 413.103 262.034 395.887 280.021 395.887C298.008 395.887 312.657 413.103 312.657 434.351Z" fill="black"/>
<path opacity="0.2" d="M269.204 446.936C272.259 446.936 274.736 441.018 274.736 433.719C274.736 426.419 272.259 420.502 269.204 420.502C266.149 420.502 263.673 426.419 263.673 433.719C263.673 441.018 266.149 446.936 269.204 446.936Z" fill="black"/>
<path opacity="0.4" d="M229.645 362.607C231.234 368.821 229.768 375.603 226.38 377.737C222.992 379.871 218.988 376.552 217.362 370.338C215.736 364.125 217.226 357.343 220.614 355.209C224.002 353.074 228.056 356.379 229.645 362.607Z" fill="black"/>
<path opacity="0.4" d="M315.392 362.892C314.16 369.105 315.675 375.808 318.731 377.848C321.786 379.887 325.236 376.504 326.443 370.275C327.65 364.046 326.16 357.359 323.104 355.319C320.049 353.28 316.624 356.663 315.392 362.892Z" fill="black"/>
<path opacity="0.2" d="M298.637 446.936C301.692 446.936 304.168 441.018 304.168 433.719C304.168 426.419 301.692 420.502 298.637 420.502C295.582 420.502 293.105 426.419 293.105 433.719C293.105 441.018 295.582 446.936 298.637 446.936Z" fill="black"/>
<path d="M206.003 296.271C184.554 273.473 165.347 271.703 158.719 275.845C152.09 279.987 169.326 324.68 169.326 324.68C169.326 324.68 192.857 322.91 206.003 296.271Z" fill="#31A592"/>
<path opacity="0.2" d="M193.929 312.681C182.164 295.29 169.449 288.05 165.741 289.852C162.033 291.654 171.433 322.515 171.433 322.515C171.433 322.515 186.586 328.111 193.929 312.681Z" fill="black"/>
<path opacity="0.4" d="M249.32 284.066H267.443C267.443 284.066 263.5 278.501 250.121 276.809C242.543 276.019 234.918 276.551 227.452 278.39C227.452 278.39 242.384 277.963 249.32 284.066Z" fill="black"/>
</svg>
